<svg xmlns="http://www.w3.org/2000/svg" xmlns:xlink="http://www.w3.org/1999/xlink" width="500" zoomAndPan="magnify" viewBox="0 0 375 374.999991" height="500" preserveAspectRatio="xMidYMid meet" version="1.0"><path fill="rgb(0%, 68.238831%, 93.728638%)" d="M 187.484375 255.570312 L 117.4375 185.484375 L 137.636719 165.269531 C 137.636719 165.269531 137.644531 165.261719 137.644531 165.261719 L 187.484375 115.398438 L 237.320312 165.261719 C 237.328125 165.269531 237.328125 165.269531 237.335938 165.277344 L 257.53125 185.484375 Z M 187.484375 255.570312 " fill-opacity="1" fill-rule="nonzero"/><path fill="rgb(19.999695%, 74.508667%, 94.898987%)" d="M 187.484375 115.398438 L 230.53125 72.324219 C 241.6875 61.160156 259.785156 61.160156 270.941406 72.324219 L 320.777344 122.191406 L 257.523438 185.484375 L 237.328125 165.277344 C 237.320312 165.277344 237.320312 165.269531 237.3125 165.261719 Z M 187.484375 115.398438 " fill-opacity="1" fill-rule="nonzero"/><path fill="rgb(39.99939%, 80.778503%, 96.078491%)" d="M 257.523438 185.484375 L 320.777344 122.191406 L 363.824219 165.261719 C 374.984375 176.425781 374.984375 194.53125 363.824219 205.695312 L 320.777344 248.769531 Z M 257.523438 185.484375 " fill-opacity="1" fill-rule="nonzero"/><path fill="rgb(59.999084%, 87.449646%, 97.648621%)" d="M 257.523438 185.484375 L 320.769531 248.777344 L 270.933594 298.640625 C 259.777344 309.804688 241.679688 309.804688 230.523438 298.640625 L 187.476562 255.570312 Z M 257.523438 185.484375 " fill-opacity="1" fill-rule="nonzero"/><path fill="rgb(0%, 17.248535%, 23.529053%)" d="M 117.4375 185.484375 L 54.179688 122.191406 L 104.015625 72.324219 C 115.175781 61.160156 133.269531 61.160156 144.429688 72.324219 L 185.507812 113.429688 L 187.476562 115.398438 L 137.636719 165.261719 C 137.636719 165.261719 137.636719 165.269531 137.628906 165.269531 Z M 117.4375 185.484375 " fill-opacity="1" fill-rule="nonzero"/><path fill="rgb(0%, 34.118652%, 47.059631%)" d="M 117.4375 185.484375 L 54.179688 248.777344 L 11.132812 205.703125 C -0.0234375 194.539062 -0.03125 176.433594 11.132812 165.269531 L 54.179688 122.199219 Z M 117.4375 185.484375 " fill-opacity="1" fill-rule="nonzero"/><path fill="rgb(0%, 51.368713%, 70.199585%)" d="M 104.015625 298.632812 L 54.179688 248.769531 L 117.4375 185.484375 L 187.484375 255.570312 L 144.4375 298.632812 C 133.269531 309.804688 115.183594 309.804688 104.015625 298.632812 Z M 104.015625 298.632812 " fill-opacity="1" fill-rule="nonzero"/></svg>